# xmcd
#
# Track frame offsets:
#	150
#	32968
#	115812
#	132300
#	159283
#	206769
#	249628
#
# Disc length: 3659 seconds
#
# Revision: 0
# Processed by: cddbd v1.5.2PL0 Copyright (c) Steve Scherf et al.
# Submitted via: audiograbber 1.83.01
#
DISCID=5e0e4907
DTITLE=Grateful Dead - 94-07-31 The Palace, Auburn Hills MI
DYEAR=1900
DGENRE=
TTITLE0=Drums
TTITLE1=Space
TTITLE2=Spanish Jam
TTITLE3=The Last Time
TTITLE4=Black Peter
TTITLE5=Good Lovin'
TTITLE6=The Weight
EXTD=
EXTT0=
EXTT1=
EXTT2=
EXTT3=
EXTT4=
EXTT5=
EXTT6=
PLAYORDER=
